<svg width="20" height="21" viewBox="0 0 20 21" fill="none" xmlns="http://www.w3.org/2000/svg">
<path d="M18.895 0H1.10504C0.811966 0 0.530894 0.120469 0.323659 0.334907C0.116423 0.549345 0 0.840185 0 1.14345V19.5516C0 19.8549 0.116423 20.1457 0.323659 20.3602C0.530894 20.5746 0.811966 20.6951 1.10504 20.6951H10.6807V12.6822H8.07563V9.55625H10.6807V7.25632C10.6807 4.58248 12.2605 3.126 14.563 3.126C15.3418 3.12472 16.1202 3.16535 16.895 3.24773V6.04331H15.2941C14.0336 6.04331 13.7983 6.66068 13.7983 7.565V9.55625H16.7899L16.3992 12.6822H13.7983V20.6951H18.895C19.188 20.6951 19.4691 20.5746 19.6763 20.3602C19.8836 20.1457 20 19.8549 20 19.5516V1.14345C20 0.840185 19.8836 0.549345 19.6763 0.334907C19.4691 0.120469 19.188 0 18.895 0Z" fill="white"/>
</svg>
