<svg width="20" height="21" viewBox="0 0 20 21" fill="none" xmlns="http://www.w3.org/2000/svg">
<rect width="20" height="21" fill="#E5E5E5"/>
<g id="Telepsy - Home">
<rect width="1366" height="2739" transform="translate(-155 -2278)" fill="white"/>
<g id="Footer">
<rect id="Rectangle 7" x="-155" y="-97" width="1366" height="558" fill="black"/>
<g id="Group 28">
<g id="Group 27">
<g id="Group 22">
<g id="Instagram">
<path id="Vector" d="M9.98116 1.88374C12.6397 1.88374 12.9579 1.88374 14.0088 1.9445C14.641 1.95021 15.2673 2.07067 15.8593 2.30042C16.2879 2.47296 16.6771 2.73611 17.0022 3.07313C17.3273 3.41015 17.5811 3.81365 17.7475 4.25794C17.9692 4.87174 18.0853 5.52104 18.0909 6.1764C18.1411 7.26584 18.1495 7.59572 18.1495 10.3519C18.1495 13.108 18.1495 13.4379 18.0909 14.5273C18.0853 15.1827 17.9692 15.832 17.7475 16.4458C17.5811 16.8901 17.3273 17.2936 17.0022 17.6306C16.6771 17.9676 16.2879 18.2308 15.8593 18.4033C15.2673 18.6331 14.641 18.7535 14.0088 18.7592C12.9579 18.8113 12.6439 18.82 9.98116 18.82C7.3184 18.82 7.0044 18.82 5.95353 18.7592C5.32137 18.7535 4.69506 18.6331 4.10299 18.4033C3.6779 18.2278 3.29251 17.9628 2.97112 17.6252C2.64974 17.2875 2.39934 16.8845 2.23571 16.4415C2.0141 15.8277 1.89791 15.1784 1.8924 14.523C1.81704 13.4336 1.81704 13.1037 1.81704 10.3475C1.81704 7.59138 1.81704 7.2615 1.87565 6.17206C1.88651 5.51567 2.00838 4.86633 2.23571 4.2536C2.40224 3.81541 2.65395 3.41742 2.97518 3.08439C3.29642 2.75136 3.68032 2.49042 4.10299 2.31778C4.69506 2.08803 5.32137 1.96757 5.95353 1.96187C7.0044 1.88374 7.32259 1.88374 9.98116 1.88374ZM9.98116 0.0217017C7.27653 0.0217017 6.93741 0.0217023 5.87398 0.082468C5.04591 0.10575 4.22765 0.274528 3.45405 0.581615C2.78654 0.845225 2.18035 1.2522 1.67527 1.77583C1.17018 2.29945 0.777618 2.92789 0.523341 3.6199C0.232847 4.42293 0.0757132 5.27119 0.0586139 6.12866C0.0125599 7.23112 0 7.58269 0 10.3866C0 13.1905 -2.55787e-07 13.5421 0.0586139 14.6445C0.0919745 15.4911 0.261791 16.3258 0.561022 17.1142C0.815299 17.8062 1.20786 18.4347 1.71295 18.9583C2.21803 19.4819 2.82422 19.8889 3.49173 20.1525C4.26633 20.4537 5.08456 20.6166 5.91166 20.6343C6.97509 20.682 7.31421 20.6951 10.0188 20.6951C12.7235 20.6951 13.0626 20.6951 14.126 20.6343C14.9531 20.6166 15.7713 20.4537 16.5459 20.1525C17.2135 19.8889 17.8196 19.4819 18.3247 18.9583C18.8298 18.4347 19.2224 17.8062 19.4767 17.1142C19.7672 16.3112 19.9243 15.4629 19.9414 14.6055C19.9874 13.503 20 13.1514 20 10.3475C20 7.54363 20 7.19206 19.9414 6.08959C19.9243 5.23213 19.7672 4.38387 19.4767 3.58084C19.2224 2.88883 18.8298 2.26039 18.3247 1.73676C17.8196 1.21314 17.2135 0.806162 16.5459 0.542551C15.7713 0.241394 14.9531 0.0784924 14.126 0.0607655C13.0626 0.013021 12.7235 0 10.0188 0L9.98116 0.0217017Z" fill="white"/>
<path id="Vector_2" d="M9.98118 5.04346C8.96929 5.04346 7.98013 5.35454 7.13878 5.93736C6.29742 6.52018 5.64167 7.34856 5.25444 8.31775C4.86721 9.28694 4.76589 10.3534 4.9633 11.3823C5.16071 12.4112 5.64798 13.3563 6.36349 14.0981C7.079 14.8399 7.99062 15.345 8.98306 15.5497C9.9755 15.7544 11.0042 15.6493 11.9391 15.2479C12.8739 14.8464 13.673 14.1666 14.2351 13.2943C14.7973 12.4221 15.0974 11.3966 15.0974 10.3475C15.0974 8.9408 14.5583 7.59169 13.5989 6.59698C12.6394 5.60228 11.3381 5.04346 9.98118 5.04346V5.04346ZM9.98118 13.7895C9.32453 13.7895 8.68262 13.5877 8.13664 13.2095C7.59066 12.8312 7.16511 12.2937 6.91382 11.6647C6.66254 11.0358 6.59679 10.3437 6.72489 9.67603C6.853 9.00835 7.16921 8.39504 7.63353 7.91367C8.09785 7.43229 8.68943 7.10447 9.33346 6.97166C9.97749 6.83885 10.645 6.90702 11.2517 7.16753C11.8584 7.42805 12.3769 7.86922 12.7417 8.43526C13.1065 9.00129 13.3013 9.66677 13.3013 10.3475C13.3013 11.2604 12.9515 12.1359 12.3288 12.7814C11.7062 13.4269 10.8617 13.7895 9.98118 13.7895Z" fill="white"/>
<path id="Vector_3" d="M15.2983 6.07642C15.9596 6.07642 16.4957 5.52065 16.4957 4.83508C16.4957 4.14951 15.9596 3.59375 15.2983 3.59375C14.637 3.59375 14.1009 4.14951 14.1009 4.83508C14.1009 5.52065 14.637 6.07642 15.2983 6.07642Z" fill="white"/>
</g>
</g>
</g>
</g>
</g>
</g>
</svg>
