<svg width="23" height="21" viewBox="0 0 23 21" fill="none" xmlns="http://www.w3.org/2000/svg">
<path d="M23 2.45036C22.1385 2.87108 21.2256 3.14872 20.291 3.27431C21.2789 2.62145 22.0187 1.5926 22.3722 0.379783C21.4451 0.988446 20.4309 1.41728 19.3735 1.64781C18.7263 0.884616 17.8871 0.354416 16.9646 0.12593C16.0422 -0.102555 15.0791 -0.01879 14.2002 0.366368C13.3213 0.751527 12.567 1.42032 12.0352 2.28606C11.5034 3.15181 11.2185 4.17459 11.2175 5.22184C11.2181 5.62324 11.2586 6.02336 11.3382 6.41496C9.46375 6.31424 7.62919 5.77887 5.95314 4.84343C4.27708 3.908 2.79682 2.59332 1.60802 0.98437C1.00879 2.13124 0.825059 3.48747 1.094 4.77872C1.36294 6.06997 2.06447 7.19985 3.05669 7.93981C2.30695 7.91355 1.57365 7.68979 0.917489 7.28707V7.35662C0.918322 8.56305 1.29576 9.73202 1.98579 10.6653C2.67581 11.5985 3.63595 12.2386 4.70334 12.4769C4.00859 12.6835 3.28084 12.7145 2.5738 12.5678C2.87413 13.6063 3.46032 14.5145 4.25013 15.165C5.03994 15.8156 5.99375 16.1759 6.97774 16.1954C5.30704 17.6429 3.24597 18.4267 1.12513 18.4211C0.749086 18.4206 0.373392 18.3956 0 18.3462C2.15918 19.8875 4.67487 20.7032 7.24333 20.695C15.9353 20.695 20.6628 12.7337 20.6628 5.83178C20.6628 5.60171 20.6628 5.377 20.6628 5.15228C21.5803 4.41229 22.3717 3.4974 23 2.45036Z" fill="white"/>
</svg>
