<svg width="12" height="11" viewBox="0 0 12 11" fill="none" xmlns="http://www.w3.org/2000/svg">
<path d="M5.98117 0.043457C4.96929 0.043457 3.98013 0.354536 3.13878 0.937356C2.29742 1.52017 1.64167 2.34856 1.25444 3.31775C0.867207 4.28694 0.765889 5.35342 0.963298 6.38231C1.16071 7.4112 1.64798 8.35629 2.36349 9.09808C3.079 9.83987 3.99062 10.345 4.98306 10.5497C5.9755 10.7544 7.00419 10.6493 7.93905 10.2479C8.87391 9.84641 9.67295 9.16657 10.2351 8.29432C10.7973 7.42207 11.0974 6.39658 11.0974 5.34753C11.0974 3.9408 10.5583 2.59169 9.59886 1.59698C8.63939 0.602277 7.33807 0.043457 5.98117 0.043457ZM5.98117 8.78954C5.32453 8.78954 4.68262 8.58767 4.13664 8.20946C3.59066 7.83125 3.16511 7.29368 2.91382 6.66473C2.66254 6.03579 2.59679 5.34372 2.72489 4.67603C2.853 4.00835 3.16921 3.39504 3.63353 2.91367C4.09785 2.43229 4.68943 2.10447 5.33346 1.97166C5.97749 1.83885 6.64505 1.90702 7.25171 2.16753C7.85838 2.42805 8.3769 2.86922 8.74172 3.43526C9.10653 4.00129 9.30125 4.66677 9.30125 5.34753C9.30125 6.26041 8.95146 7.1359 8.32882 7.7814C7.70619 8.4269 6.86171 8.78954 5.98117 8.78954Z" fill="white"/>
</svg>
