<svg width="20" height="20" viewBox="0 0 20 20" fill="none" xmlns="http://www.w3.org/2000/svg">
<path d="M20 15.7959C20 16.051 19.9531 16.3857 19.8571 16.798C19.7633 17.2102 19.6633 17.5347 19.5592 17.7714C19.3612 18.2449 18.7837 18.7469 17.8265 19.2775C16.9367 19.7592 16.0551 20 15.1837 20C14.9286 20 14.6796 19.9837 14.4388 19.951C14.198 19.9184 13.9245 19.8592 13.6224 19.7735C13.3204 19.6878 13.0939 19.6204 12.9469 19.5673C12.8 19.5143 12.5367 19.4184 12.1592 19.2755C11.7796 19.1327 11.549 19.049 11.4633 19.0204C10.5347 18.6898 9.70612 18.2959 8.97755 17.8408C7.76531 17.0918 6.51224 16.0714 5.22041 14.7796C3.92857 13.4878 2.90816 12.2347 2.15918 11.0224C1.70408 10.2939 1.31224 9.46531 0.979592 8.53673C0.95102 8.45102 0.865306 8.22041 0.72449 7.84082C0.581633 7.46122 0.485714 7.2 0.432653 7.05306C0.379592 6.90612 0.312245 6.68163 0.226531 6.37755C0.140816 6.07551 0.0816326 5.80204 0.0489796 5.56122C0.0163265 5.32041 0 5.07143 0 4.81633C0 3.9449 0.240816 3.06531 0.72449 2.17347C1.2551 1.21633 1.75714 0.638776 2.23061 0.440816C2.46735 0.336735 2.79184 0.236735 3.20408 0.142857C3.61633 0.0489796 3.94898 0 4.20612 0C4.33878 0 4.43878 0.0142857 4.50408 0.0428572C4.67551 0.1 4.92449 0.459184 5.25714 1.12245C5.36122 1.30204 5.50408 1.55714 5.68367 1.8898C5.86327 2.22041 6.02857 2.52245 6.18163 2.79184C6.33265 3.06122 6.47959 3.31429 6.62245 3.55102C6.65102 3.5898 6.73469 3.70816 6.87143 3.90612C7.00816 4.10408 7.1102 4.27347 7.17755 4.4102C7.24286 4.54694 7.27755 4.68163 7.27755 4.81429C7.27755 5.00408 7.14286 5.24082 6.87347 5.52449C6.60408 5.80816 6.3102 6.06939 5.99184 6.30612C5.67551 6.54286 5.38163 6.79388 5.1102 7.05918C4.84082 7.32449 4.70612 7.54286 4.70612 7.71224C4.70612 7.79796 4.73061 7.90408 4.77755 8.03265C4.82449 8.16122 4.86531 8.25714 4.89796 8.32449C4.93061 8.3898 4.99796 8.50408 5.09592 8.66531C5.19388 8.82653 5.24898 8.91633 5.25918 8.93469C5.97959 10.2327 6.80204 11.3449 7.73061 12.2735C8.65918 13.202 9.77143 14.0245 11.0694 14.7449C11.0878 14.7551 11.1776 14.8082 11.3388 14.9082C11.5 15.0082 11.6143 15.0735 11.6796 15.1061C11.7449 15.1388 11.8429 15.1796 11.9714 15.2265C12.1 15.2735 12.2061 15.298 12.2918 15.298C12.4633 15.298 12.6796 15.1633 12.9449 14.8939C13.2102 14.6245 13.4612 14.3306 13.698 14.0122C13.9347 13.6959 14.1959 13.402 14.4796 13.1306C14.7633 12.8592 15 12.7265 15.1898 12.7265C15.3224 12.7265 15.4571 12.7592 15.5939 12.8265C15.7306 12.8918 15.9 12.9939 16.098 13.1327C16.2959 13.2714 16.4143 13.3531 16.4531 13.3816C16.6898 13.5245 16.9429 13.6714 17.2122 13.8224C17.4816 13.9735 17.7837 14.1388 18.1143 14.3204C18.4449 14.5 18.702 14.6429 18.8816 14.7469C19.5449 15.0775 19.9041 15.3286 19.9612 15.5C19.9857 15.5633 20 15.6633 20 15.7959Z" fill="#FF4B4B"/>
</svg>
